<?xml version="1.0" encoding="UTF-8" standalone="no"?>
<!DOCTYPE svg PUBLIC "-//W3C//DTD SVG 1.1//EN"
 "http://www.w3.org/Graphics/SVG/1.1/DTD/svg11.dtd">
<!-- Generated by graphviz version 2.40.1 (20161225.0304)
 -->
<!-- Title: G Pages: 1 -->
<svg width="675pt" height="285pt"
 viewBox="0.00 0.00 675.00 285.00" xmlns="http://www.w3.org/2000/svg" xmlns:xlink="http://www.w3.org/1999/xlink">
<g id="graph0" class="graph" transform="scale(1 1) rotate(0) translate(4 281)">
<title>G</title>
<polygon fill="#ffffff" stroke="transparent" points="-4,4 -4,-281 671,-281 671,4 -4,4"/>
<!-- table_Time_t -->
<g id="node1" class="node">
<title>table_Time_t</title>
<polygon fill="none" stroke="#000000" points="500.5,-22 500.5,-44 619.5,-44 619.5,-22 500.5,-22"/>
<text text-anchor="start" x="503.4351" y="-29.4" font-family="Times,serif" font-style="italic" font-size="14.00" fill="#000000">Receivers_g.Time_t</text>
<polygon fill="none" stroke="#000000" points="500.5,0 500.5,-22 619.5,-22 619.5,0 500.5,0"/>
<text text-anchor="start" x="519.5589" y="-6.4" font-family="Times,serif" font-size="14.00" fill="#000000">implied_index</text>
</g>
<!-- table_Receiver_t -->
<g id="node2" class="node">
<title>table_Receiver_t</title>
<polygon fill="none" stroke="#000000" points="490.5,-146 490.5,-168 629.5,-168 629.5,-146 490.5,-146"/>
<text text-anchor="start" x="493.3362" y="-153.4" font-family="Times,serif" font-style="italic" font-size="14.00" fill="#000000">Receivers_g.Receiver_t</text>
<polygon fill="none" stroke="#000000" points="490.5,-124 490.5,-146 629.5,-146 629.5,-124 490.5,-124"/>
<text text-anchor="start" x="519.5589" y="-130.4" font-family="Times,serif" font-size="14.00" fill="#000000">implied_index</text>
</g>
<!-- table_Response_t -->
<g id="node3" class="node">
<title>table_Response_t</title>
<polygon fill="none" stroke="#000000" points="489.5,-84 489.5,-106 630.5,-106 630.5,-84 489.5,-84"/>
<text text-anchor="start" x="492.1497" y="-91.4" font-family="Times,serif" font-style="italic" font-size="14.00" fill="#000000">Response_g.Response_t</text>
<polygon fill="none" stroke="#000000" points="489.5,-62 489.5,-84 630.5,-84 630.5,-62 489.5,-62"/>
<text text-anchor="start" x="551.0547" y="-68.4" font-family="Times,serif" font-size="14.00" fill="#000000">n_i</text>
</g>
<!-- table_Event_t -->
<g id="node4" class="node">
<title>table_Event_t</title>
<polygon fill="none" stroke="#000000" points="265,-255 265,-277 360,-277 360,-255 265,-255"/>
<text text-anchor="start" x="267.5866" y="-262.4" font-family="Times,serif" font-style="italic" font-size="14.00" fill="#000000">Sorts_g.Event_t</text>
<polygon fill="none" stroke="#000000" points="265,-233 265,-255 360,-255 360,-233 265,-233"/>
<text text-anchor="start" x="300.8324" y="-239.4" font-family="Times,serif" font-size="14.00" fill="#000000">id_s</text>
</g>
<!-- table_Data_a -->
<g id="node5" class="node">
<title>table_Data_a</title>
<polygon fill="none" stroke="#000000" points="452.5,-208 452.5,-230 667.5,-230 667.5,-208 452.5,-208"/>
<text text-anchor="start" x="455.4347" y="-215.4" font-family="Times,serif" font-style="italic" font-size="14.00" fill="#000000">Receivers_g.Das_g_XXXXX.Data_a</text>
<polygon fill="none" stroke="#000000" points="452.5,-186 452.5,-208 667.5,-208 667.5,-186 452.5,-186"/>
<text text-anchor="start" x="548.3401" y="-192.4" font-family="Times,serif" font-size="14.00" fill="#000000">data</text>
</g>
<!-- table_Das_t -->
<g id="node6" class="node">
<title>table_Das_t</title>
<polygon fill="none" stroke="#000000" points="208,-193 208,-215 416,-215 416,-193 208,-193"/>
<text text-anchor="start" x="210.927" y="-200.4" font-family="Times,serif" font-style="italic" font-size="14.00" fill="#000000">Receivers_g.Das_g_XXXXX.Das_t</text>
<polygon fill="none" stroke="#000000" points="208,-171 208,-193 416,-193 416,-171 208,-171"/>
<text text-anchor="start" x="257.1977" y="-177.4" font-family="Times,serif" font-size="14.00" fill="#000000">array_name_data_a</text>
<polygon fill="none" stroke="#000000" points="208,-149 208,-171 416,-171 416,-149 208,-149"/>
<text text-anchor="start" x="259.9144" y="-155.4" font-family="Times,serif" font-size="14.00" fill="#000000">receiver_table_n_i</text>
<polygon fill="none" stroke="#000000" points="208,-127 208,-149 416,-149 416,-127 208,-127"/>
<text text-anchor="start" x="257.96" y="-133.4" font-family="Times,serif" font-size="14.00" fill="#000000">response_table_n_i</text>
<polygon fill="none" stroke="#000000" points="208,-105 208,-127 416,-127 416,-105 208,-105"/>
<text text-anchor="start" x="270.0063" y="-111.4" font-family="Times,serif" font-size="14.00" fill="#000000">time_table_n_i</text>
</g>
<!-- table_Das_t&#45;&gt;table_Time_t -->
<g id="edge6" class="edge">
<title>table_Das_t:time_table_n_i&#45;&gt;table_Time_t:implied_index</title>
<path fill="none" stroke="#000000" d="M416,-116C448.249,-116 431.519,-77.9104 452,-53 467.7042,-33.8994 471.2007,-16.3418 490.4479,-12.015"/>
<polygon fill="#000000" stroke="#000000" points="490.9022,-15.487 500.5,-11 490.1989,-8.5224 490.9022,-15.487"/>
</g>
<!-- table_Das_t&#45;&gt;table_Receiver_t -->
<g id="edge1" class="edge">
<title>table_Das_t:receiver_table_n_i&#45;&gt;table_Receiver_t:implied_index</title>
<path fill="none" stroke="#000000" d="M416,-160C447.2421,-160 454.257,-139.9953 480.3886,-135.7756"/>
<polygon fill="#000000" stroke="#000000" points="480.797,-139.2547 490.5,-135 480.2616,-132.2752 480.797,-139.2547"/>
</g>
<!-- table_Das_t&#45;&gt;table_Response_t -->
<g id="edge3" class="edge">
<title>table_Das_t:response_table_n_i&#45;&gt;table_Response_t:n_i</title>
<path fill="none" stroke="#000000" d="M416,-138C455.8607,-138 447.8259,-83.6918 479.4546,-74.3576"/>
<polygon fill="#000000" stroke="#000000" points="480.0589,-77.8079 489.5,-73 479.1213,-70.8709 480.0589,-77.8079"/>
</g>
<!-- table_Das_t&#45;&gt;table_Data_a -->
<g id="edge8" class="edge">
<title>table_Das_t:array_name_data_a&#45;&gt;table_Data_a</title>
<path fill="none" stroke="#000000" d="M416,-182C428.7108,-182 441.955,-182.9999 455.0345,-184.6075"/>
<polygon fill="#000000" stroke="#000000" points="454.615,-188.0825 464.9927,-185.9488 455.5495,-181.1452 454.615,-188.0825"/>
</g>
<!-- table_Array_t -->
<g id="node7" class="node">
<title>table_Array_t</title>
<polygon fill="none" stroke="#000000" points="255,-65 255,-87 369,-87 369,-65 255,-65"/>
<text text-anchor="start" x="271.5736" y="-72.4" font-family="Times,serif" font-style="italic" font-size="14.00" fill="#000000">Array_t_XXX</text>
<polygon fill="none" stroke="#000000" points="255,-43 255,-65 369,-65 369,-43 255,-43"/>
<text text-anchor="start" x="259.9144" y="-49.4" font-family="Times,serif" font-size="14.00" fill="#000000">receiver_table_n_i</text>
<polygon fill="none" stroke="#000000" points="255,-21 255,-43 369,-43 369,-21 255,-21"/>
<text text-anchor="start" x="257.96" y="-27.4" font-family="Times,serif" font-size="14.00" fill="#000000">response_table_n_i</text>
</g>
<!-- table_Array_t&#45;&gt;table_Receiver_t -->
<g id="edge2" class="edge">
<title>table_Array_t:receiver_table_n_i&#45;&gt;table_Receiver_t:implied_index</title>
<path fill="none" stroke="#000000" d="M369,-54C430.3507,-54 426.289,-126.3829 480.4852,-134.2998"/>
<polygon fill="#000000" stroke="#000000" points="480.2802,-137.7939 490.5,-135 480.7685,-130.8109 480.2802,-137.7939"/>
</g>
<!-- table_Array_t&#45;&gt;table_Response_t -->
<g id="edge4" class="edge">
<title>table_Array_t:response_table_n_i&#45;&gt;table_Response_t:n_i</title>
<path fill="none" stroke="#000000" d="M369,-32C422.0351,-32 431.8172,-68.0352 479.4457,-72.5396"/>
<polygon fill="#000000" stroke="#000000" points="479.3503,-76.0388 489.5,-73 479.6706,-69.0461 479.3503,-76.0388"/>
</g>
<!-- table_Offset_t -->
<g id="node8" class="node">
<title>table_Offset_t</title>
<polygon fill="none" stroke="#000000" points="0,-255 0,-277 172,-277 172,-255 0,-255"/>
<text text-anchor="start" x="2.6069" y="-262.4" font-family="Times,serif" font-style="italic" font-size="14.00" fill="#000000">Sorts_g.Offset_t_XXX_YYY</text>
<polygon fill="none" stroke="#000000" points="0,-233 0,-255 172,-255 172,-233 0,-233"/>
<text text-anchor="start" x="55.6725" y="-239.4" font-family="Times,serif" font-size="14.00" fill="#000000">event_id_s</text>
</g>
<!-- table_Offset_t&#45;&gt;table_Event_t -->
<g id="edge5" class="edge">
<title>table_Offset_t:event_id_s&#45;&gt;table_Event_t:id_s</title>
<path fill="none" stroke="#000000" d="M172,-244C209.7813,-244 221.6617,-244 254.9912,-244"/>
<polygon fill="#000000" stroke="#000000" points="255,-247.5001 265,-244 255,-240.5001 255,-247.5001"/>
</g>
<!-- table_Sort_t -->
<g id="node9" class="node">
<title>table_Sort_t</title>
<polygon fill="none" stroke="#000000" points="39,-65 39,-87 134,-87 134,-65 39,-65"/>
<text text-anchor="start" x="46.2486" y="-72.4" font-family="Times,serif" font-style="italic" font-size="14.00" fill="#000000">Sorts_g.Sort_t</text>
<polygon fill="none" stroke="#000000" points="39,-43 39,-65 134,-65 134,-43 39,-43"/>
<text text-anchor="start" x="41.7973" y="-49.4" font-family="Times,serif" font-size="14.00" fill="#000000">array_t_name_s</text>
</g>
<!-- table_Sort_t&#45;&gt;table_Array_t -->
<g id="edge7" class="edge">
<title>table_Sort_t:array_t_name_s&#45;&gt;table_Array_t:receiver_table_n_i</title>
<path fill="none" stroke="#000000" d="M134,-54C184.2066,-54 199.2588,-54 244.7964,-54"/>
<polygon fill="#000000" stroke="#000000" points="245,-57.5001 255,-54 245,-50.5001 245,-57.5001"/>
</g>
</g>
</svg>